HIERARCHY
ROOT Hips
{
	OFFSET 0.000000 0.000000 0.000000 
	CHANNELS 6 Xposition Yposition Zposition Yrotation Zrotation Xrotation 
	JOINT Lumbar
	{
		OFFSET 0.000000 0.000000 0.000000 
		CHANNELS 3 Zrotation Xrotation Yrotation
		JOINT Neck
		{
			OFFSET 0.000000 0.445665 0.000000 
			CHANNELS 3 Zrotation Xrotation Yrotation
			End Site
			{
				OFFSET 0.000000 0.227535 0.000000 
			}
		}
		JOINT RightShoulder
		{
			OFFSET 0.019635 0.377685 0.194865 
			CHANNELS 3 Zrotation Xrotation Yrotation
			JOINT RightElbow
			{
				OFFSET 0.000000 -0.243375 0.000000 
				CHANNELS 2 Zrotation Yrotation
				JOINT RightWrist
				{
					OFFSET 0.000000 -0.264825 0.000000 
					CHANNELS 2 Zrotation Xrotation
					End Site
					{
						OFFSET 0.006600 -0.176220 0.000990 
					}
				}
			}
		}
		JOINT LeftShoulder
		{
			OFFSET 0.019635 0.377685 -0.194865 
			CHANNELS 3 Zrotation Xrotation Yrotation
			JOINT LeftElbow
			{
				OFFSET 0.000000 -0.243375 0.000000 
				CHANNELS 2 Zrotation Yrotation
				JOINT LeftWrist
				{
					OFFSET 0.000000 -0.264825 0.000000 
					CHANNELS 2 Zrotation Xrotation
					End Site
					{
						OFFSET 0.006600 -0.176220 -0.000990 
					}
				}
			}
		}
	}
	JOINT RightHip
	{
		OFFSET 0.052140 -0.069960 0.075570 
		CHANNELS 3 Zrotation Xrotation Yrotation
		JOINT RightKnee
		{
			OFFSET 0.000000 -0.402270 0.000000 
			CHANNELS 1 Zrotation
			JOINT RightAnkle
			{
				OFFSET 0.000000 -0.404085 0.000000 
				CHANNELS 3 Zrotation Xrotation Yrotation
				End Site
				{
					OFFSET 0.204105 -0.089430 0.008415 
				}
			}
		}
	}
	JOINT LeftHip
	{
		OFFSET 0.052140 -0.069960 -0.075570 
		CHANNELS 3 Zrotation Xrotation Yrotation
		JOINT LeftKnee
		{
			OFFSET 0.000000 -0.402270 0.000000 
			CHANNELS 1 Zrotation
			JOINT LeftAnkle
			{
				OFFSET 0.000000 -0.404085 0.000000 
				CHANNELS 3 Zrotation Xrotation Yrotation
				End Site
				{
					OFFSET 0.204105 -0.089430 -0.008415 
				}
			}
		}
	}
}
MOTION
Frames: 17
Frame Time: 0.02
0.0091 0.91585 -0.06897 180.72091 0 1.62784 7.06271 2.72322 -7.85973 -56.43117 6.1183 4.70718 51.22617 -55.85372 6.46109 103.14093 71.57496 -9.31703 0.79153 51.06014 18.18919 -6.63849 25.15019 -114.86503 -28.24175 8.24993 13.71182 5.36522 2.71941 -38.04971 2.50603 -4.15908 -15.60896 -0.22427 10.8347 6.52275 -27.27181 -0.04043 2.83984 5.43563
0.00859 0.91888 -0.07319 181.04205 0 1.62877 6.86112 2.74275 -7.98532 -56.12999 6.01934 4.78866 50.78176 -55.41846 5.37094 103.84951 72.74665 -9.43491 0.17082 50.71049 17.99008 -6.45951 24.4829 -113.63677 -26.62146 8.24607 13.09396 5.44746 2.34629 -36.82934 1.99378 -4.04855 -15.48032 -0.14248 10.96556 6.183 -26.95746 -1.07536 2.73465 5.62019
0.0084 0.92167 -0.07724 181.44644 0 1.62198 6.61749 2.77918 -8.15189 -55.78076 5.89034 4.87087 50.15203 -54.85438 4.03126 104.61031 73.90743 -9.43319 -0.27409 50.29219 17.7982 -6.34403 23.89867 -112.26664 -25.12225 8.22659 12.49642 5.51564 1.89729 -35.62311 1.48919 -3.94696 -15.33888 0.07445 11.10371 5.78871 -26.81152 -2.05315 2.64147 5.8249
0.0081 0.92455 -0.08134 181.81409 0 1.61715 6.38933 2.81016 -8.2979 -55.46174 5.77948 4.95645 49.63194 -54.3347 2.81147 105.32682 75.26703 -9.61026 -0.82153 49.90937 17.59402 -6.2011 23.27763 -110.95359 -23.56831 8.21122 11.89191 5.59108 1.48169 -34.41181 0.98018 -3.84144 -15.20315 0.23857 11.23673 5.41924 -26.60222 -3.04899 2.54391 6.02934
0.00768 0.9275 -0.08555 182.18045 0 1.61854 6.17603 2.83196 -8.45012 -55.10819 5.65178 5.02456 49.00291 -53.87257 1.5584 106.12945 75.95124 -9.22492 -1.29255 49.50431 17.43059 -6.04811 22.66863 -109.66463 -21.99659 8.20832 11.27834 5.66201 1.06724 -33.19522 0.47504 -3.73624 -15.06731 0.36991 11.37925 5.04692 -26.34145 -4.08021 2.44056 6.19246
0.00758 0.93025 -0.08948 182.56711 0 1.60555 5.92214 2.87674 -8.59906 -54.81431 5.55141 5.13089 48.55897 -53.26123 0.31914 106.76472 77.96451 -9.99423 -1.86962 49.12974 17.18162 -5.93339 22.04827 -108.29145 -20.49667 8.1752 10.68781 5.73897 0.63444 -31.99203 -0.03644 -3.6322 -14.92838 0.59993 11.50227 4.67171 -26.22608 -5.02175 2.35248 6.44886
0.00829 0.93249 -0.09273 183.00056 0 1.55117 5.56475 2.98171 -8.73911 -54.7034 5.53119 5.33048 48.65121 -52.26519 -0.83625 106.93325 83.90166 -14.00922 -2.8329 48.86953 16.71192 -5.90148 21.37494 -106.76145 -19.17085 8.06952 10.16161 5.84017 0.1599 -30.83233 -0.56529 -3.52873 -14.79006 1.07321 11.57901 4.26343 -26.4728 -5.74902 2.30526 6.94332
0.00931 0.93453 -0.0957 183.4493 0 1.48317 5.16845 3.10907 -8.87303 -54.65278 5.53962 5.57063 48.93922 -51.12533 -1.96352 106.93061 91.11399 -19.18697 -3.89794 48.64032 16.15291 -5.90813 20.68563 -105.14749 -17.9153 7.93266 9.65685 5.94735 -0.32846 -29.68388 -1.10102 -3.42608 -14.64802 1.63983 11.63407 3.86095 -26.85855 -6.38371 2.27302 7.53209
0.0102 0.93667 -0.09876 183.8833 0 1.42384 4.79097 3.22556 -9.00338 -54.57058 5.53642 5.80056 49.15165 -50.05319 -3.09579 107.00062 97.55902 -23.82463 -4.88077 48.38934 15.62282 -5.9019 20.0017 -103.54404 -16.6254 7.80564 9.13856 6.04918 -0.80366 -28.52371 -1.63499 -3.32321 -14.50402 2.16093 11.69269 3.48114 -27.1796 -7.04886 2.23287 8.09015
0.0111 0.93879 -0.10196 184.35266 0 1.3541 4.40667 3.34546 -9.16161 -54.50522 5.52659 5.99683 49.3037 -48.96296 -4.27856 107.09243 104.79348 -28.52253 -6.00786 48.16965 15.14061 -5.8766 19.32735 -102.04381 -15.34634 7.6967 8.63697 6.16144 -1.31009 -27.39166 -2.16329 -3.21998 -14.37534 2.70051 11.77786 2.99349 -27.51535 -7.76372 2.19722 8.60574
0.01203 0.94089 -0.10481 184.75149 0 1.30252 4.02858 3.46349 -9.26017 -54.41867 5.53743 6.27158 49.62717 -47.88248 -5.33507 107.09963 110.69268 -33.35285 -6.86304 47.89134 14.53944 -5.90139 18.63008 -100.32099 -14.06399 7.54247 8.10539 6.25381 -1.75442 -26.20385 -2.70465 -3.11765 -14.21356 3.22122 11.80284 2.73145 -27.84836 -8.35045 2.15627 9.2217
0.01297 0.94301 -0.10678 184.94637 0 1.30765 3.6715 3.56981 -9.19198 -54.2682 5.60134 6.76384 50.40525 -46.82612 -6.1427 106.89617 112.53 -38.437 -6.92348 47.45928 13.61419 -6.03748 17.85571 -97.9161 -12.72076 7.27497 7.48637 6.28788 -2.01786 -24.85721 -3.28413 -3.01678 -13.96537 3.67248 11.66372 3.10092 -28.16286 -8.63522 2.09123 10.18011
0.01392 0.9451 -0.10839 185.07033 0 1.33094 3.32337 3.67359 -9.06432 -54.093 5.68465 7.33153 51.34464 -45.79253 -6.80499 106.61638 112.98999 -43.58221 -6.71096 46.96484 12.57578 -6.22553 17.0619 -95.30763 -11.37796 6.96253 6.83644 6.30216 -2.21915 -23.4549 -3.87556 -2.91695 -13.68328 4.09959 11.46529 3.69573 -28.46391 -8.78945 2.02128 11.22016
0.01486 0.94719 -0.11015 185.22993 0 1.34388 2.97494 3.77917 -8.96609 -53.923 5.75729 7.85787 52.19192 -44.77378 -7.47245 106.38415 114.12258 -48.58768 -6.63693 46.48873 11.60028 -6.40107 16.28783 -92.85032 -10.05678 6.66767 6.1999 6.32685 -2.4524 -22.07874 -4.45947 -2.81709 -13.41414 4.53377 11.29613 4.18105 -28.75606 -8.98407 1.95742 12.16421
0.01585 0.94937 -0.11199 185.37573 0 1.36531 2.60883 3.88283 -8.85785 -53.77983 5.83877 8.41612 53.12505 -43.64259 -8.39875 106.09312 115.1065 -54.10874 -6.50609 46.05497 10.57215 -6.5314 15.46625 -90.1409 -8.64496 6.38264 5.566 6.34576 -2.67024 -20.69732 -5.05364 -2.71519 -13.15537 4.98873 11.11661 4.6962 -29.11955 -9.25376 1.87813 13.35829
0.01672 0.95133 -0.11356 185.5332 0 1.3734 2.28267 3.98955 -8.75601 -53.57506 5.90601 8.92447 53.91547 -42.75412 -8.74842 105.90681 116.0516 -58.55236 -6.42653 45.51905 9.62922 -6.7674 14.74044 -87.91123 -7.42243 6.06821 4.92008 6.37195 -2.90552 -19.31607 -5.62766 -2.61803 -12.86681 5.39224 10.94467 5.20295 -29.32566 -9.33933 1.82918 14.0522
0.01724 0.95271 -0.11451 185.74055 0 1.34152 2.06058 4.10545 -8.68993 -53.19789 5.92964 9.28308 54.26789 -42.52053 -7.57052 106.045 117.25953 -60.02379 -6.56272 44.70566 8.9389 -7.28397 14.27337 -87.04062 -6.71127 5.67258 4.23949 6.42264 -3.20148 -17.92737 -6.15584 -2.53155 -12.50649 5.66963 10.80942 5.6286 -29.13204 -8.93149 1.86889 13.32454
